<?xml version="1.0" encoding="utf-8"?>
<svg version="1.1" id="fc1f5aea-a643-4136-ad0f-c5867679d735"
	 xmlns="http://www.w3.org/2000/svg" xmlns:xlink="http://www.w3.org/1999/xlink" x="0px" y="0px" viewBox="0 0 1075.6 723"
	 style="enable-background:new 0 0 1075.6 723;" xml:space="preserve">
<style type="text/css">
	.st0{fill:#3F3D56;}
	.st1{fill:#EAC2B6;}
	.st2{fill:#2F2E41;}
	.st3{fill:#575A89;}
</style>
<rect x="618" y="720" class="st0" width="371" height="4"/>
<rect x="583" y="691" class="st0" width="406" height="4"/>
<title>add_file</title>
<rect x="438" y="662" class="st0" width="457.5" height="4"/>
<path class="st1" d="M775.5,235.3l-0.7,34c0,0-14,45-6.4,90.9l21.4-15.9c0,0,9-51,9-55s6-51,6-51L775.5,235.3z"/>
<path class="st2" d="M786.9,346.6l-21.4,15.9l9.4,59.1c0,0,3,80,2,83s-19,125-19,125s21,10,40,4c0,0,19-90,19-116l22-91l34,104
	c0,0,2,70,6,93s4,26,4,26s32,9,40,0c0,0-4-118-7-130l-7-143L786.9,346.6z"/>
<path class="st2" d="M767.5,625.4c0,0-2-3-8,5s-25,23-25,23s-52,37-13,39s46-18,46-18s33-6,34-13s-4-35-4-35L767.5,625.4z"/>
<path class="st2" d="M886.5,643.4c0,0-7,24-5,34s-4,47,24,44s19-35,19-35l-9-41L886.5,643.4z"/>
<ellipse class="st1" cx="847" cy="79.1" rx="33" ry="40.8"/>
<path class="st1" d="M827.5,104.4c0,0,10,35,2,48s54,2,58-10c0,0-20-22-17-43L827.5,104.4z"/>
<path class="st3" d="M800.5,170.4h-12c0,0-14,3-11,41l-7,27c0,0,35,9,40,4S800.5,170.4,800.5,170.4z"/>
<g>
	<path class="st3" d="M921.2,380.6C921.3,380.5,921.3,380.5,921.2,380.6L921.2,380.6z"/>
	<path class="st3" d="M923.5,365.4l6.3-18.7l1.9-4.3c-3.6-30.5-19.2-67-19.2-67l21-116l-49.3-21.1c-13.3,14.9-40.7,13.1-40.7,13.1
		c-9,0-11-11.2-11-11.2l-44,29.2c0,0-7,23,4,43s6,64,6,64s-8,38.2-13,71.2s66.6,49.4,131,34.8c1.6-0.4,3.1-1,4.5-1.7L923.5,365.4z"
		/>
</g>
<path class="st1" d="M945.5,230.4l-4,35c0,0,5,46-12,82l-6,18c0,0-6,52-22,52s0-59,0-59l8-59c0,0,6-23,2-33s-5-31-5-31L945.5,230.4z
	"/>
<path class="st3" d="M919.5,160.4h14c0,0,23,77,19,78s-51,4-51,4L919.5,160.4z"/>
<path class="st2" d="M833.1,26.9c23-4.9,32.5,6,45.3,16.5c2.7,2.2,5,6.8,6.6,9.9c2.6,5,2,9,1.8,14.4c-0.3,8-3.6,20.8-9.2,26.6
	c-3.3-4.3-2.9-14-4.7-19.1s-4.6-9.1-7.9-12.6c-2.5-2.6-5.4-11.6-8.9-11.4c-5,0.2,1.7-0.9-3.2-0.1c-4.6,0.7-24.2,13.2-28.2,15.6
	c-3.4,2-7.3,16.9-10.7,18.5c-4.5,2-4.5-11.4-5.6-15.5c-1.5-5.7-2.8-14.4,0-20C812.5,41,823.9,28.8,833.1,26.9z"/>
</svg>
